<svg width="39" height="39" viewBox="0 0 39 39" fill="none" xmlns="http://www.w3.org/2000/svg">
<g clip-path="url(#clip0_497_246)">
<path d="M25.828 9.35133H24.1533V11.0116H25.828V9.35133Z" fill="#F97F34" stroke="#F97F34" stroke-width="0.75" stroke-miterlimit="10"/>
<path d="M22.4786 9.35133H20.804V11.0116H22.4786V9.35133Z" fill="#F97F34" stroke="#F97F34" stroke-width="0.75" stroke-miterlimit="10"/>
<path d="M19.1292 9.35133H17.4546V11.0116H19.1292V9.35133Z" fill="#F97F34" stroke="#F97F34" stroke-width="0.75" stroke-miterlimit="10"/>
<path d="M15.7867 9.35133H14.1121V11.0116H15.7867V9.35133Z" fill="#F97F34" stroke="#F97F34" stroke-width="0.75" stroke-miterlimit="10"/>
<path d="M36.6766 38.7572H3.19698C2.99841 38.7572 2.79321 38.5603 2.79321 38.3569V6.0308C2.79321 5.83393 2.99179 5.63049 3.19698 5.63049H36.6766C36.8752 5.63049 37.0804 5.82736 37.0804 6.0308V38.4291C37.1466 38.626 36.948 38.7638 36.6766 38.7638V38.7572ZM3.66032 37.9632H36.339V6.4311H3.66032V37.9632Z" fill="#F97F34" stroke="#F97F34" stroke-width="0.75" stroke-miterlimit="10"/>
<path d="M35.7368 6.4311H6.01021C5.81164 6.4311 5.60645 6.23422 5.60645 6.03079C5.60645 5.82736 5.80502 5.63049 6.01021 5.63049H35.8758C37.0143 5.56487 37.9542 4.63301 37.9542 3.43867C37.9542 2.84149 37.7556 2.30994 37.2857 1.84402C36.8819 1.44371 36.3458 1.18122 35.7434 1.18122H6.0764C5.87783 1.18122 5.67264 0.984351 5.67264 0.780918C5.67264 0.577486 5.87121 0.380615 6.0764 0.380615H35.7368C36.5377 0.380615 37.3452 0.715295 37.8814 1.31247C38.4175 1.90964 38.7551 2.63806 38.7551 3.43867C38.7551 5.03332 37.4842 6.35891 35.8758 6.42453H35.7434L35.7368 6.4311Z" fill="#F97F34" stroke="#F97F34" stroke-width="0.75" stroke-miterlimit="10"/>
<path d="M3.19701 22.161H0.648641C0.450067 22.161 0.244873 21.9642 0.244873 21.7607V4.37053C0.244873 3.17618 0.714832 2.04746 1.58194 1.25341C2.38948 0.518431 3.46178 0.190314 4.60027 0.255937L6.06972 0.387184C6.13591 0.387184 6.2021 0.387184 6.26829 0.452807C7.2744 1.1156 7.81056 2.24433 7.81056 3.37305C7.81056 3.56992 7.61198 3.77335 7.40679 3.77335C7.20159 3.77335 7.00302 3.57648 7.00302 3.37305C7.00302 2.50682 6.59925 1.71278 5.86453 1.18123L4.46127 1.04998C3.59416 0.984357 2.72043 1.24685 2.11809 1.84402C1.44956 2.4412 1.04579 3.37305 1.04579 4.36396V21.3604H3.1242C3.32278 21.3604 3.52797 21.5573 3.52797 21.7607C3.66035 22.0232 3.46178 22.161 3.19039 22.161H3.19701Z" fill="#F97F34" stroke="#F97F34" stroke-width="0.75" stroke-miterlimit="10"/>
<path d="M6.01021 6.4311C5.87783 6.4311 5.73882 6.36548 5.67263 6.23423C5.54025 6.03736 5.60644 5.7683 5.80502 5.63706C6.60593 5.17113 7.07589 4.31146 7.07589 3.37961C7.07589 3.18274 7.27447 2.97931 7.47966 2.97931C7.68485 2.97931 7.88343 3.17618 7.88343 3.37961C7.88343 4.57396 7.28109 5.7683 6.20878 6.36548C6.14259 6.4311 6.0764 6.4311 6.01021 6.4311Z" fill="#F97F34" stroke="#F97F34" stroke-width="0.75" stroke-miterlimit="10"/>
<path d="M24.9542 14.7259H6.53975C6.34118 14.7259 6.13599 14.529 6.13599 14.3256C6.13599 14.1222 6.33456 13.9253 6.53975 13.9253H24.9542C25.1528 13.9253 25.358 14.1222 25.358 14.3256C25.4242 14.5225 25.2256 14.7259 24.9542 14.7259Z" fill="#F97F34" stroke="#F97F34" stroke-width="0.75" stroke-miterlimit="10"/>
<path d="M24.9542 18.0464H6.53975C6.34118 18.0464 6.13599 17.8496 6.13599 17.6461C6.13599 17.4427 6.33456 17.2458 6.53975 17.2458H24.9542C25.1528 17.2458 25.358 17.4427 25.358 17.6461C25.4242 17.843 25.2256 18.0464 24.9542 18.0464Z" fill="#F97F34" stroke="#F97F34" stroke-width="0.75" stroke-miterlimit="10"/>
<path d="M24.9542 21.367H6.53975C6.34118 21.367 6.13599 21.1701 6.13599 20.9667C6.13599 20.7632 6.33456 20.5664 6.53975 20.5664H24.9542C25.1528 20.5664 25.358 20.7632 25.358 20.9667C25.4242 21.1635 25.2256 21.367 24.9542 21.367Z" fill="#F97F34" stroke="#F97F34" stroke-width="0.75" stroke-miterlimit="10"/>
<path d="M24.9542 24.681H6.53975C6.34118 24.681 6.13599 24.4841 6.13599 24.2807C6.13599 24.0772 6.33456 23.8804 6.53975 23.8804H24.9542C25.1528 23.8804 25.358 24.0772 25.358 24.2807C25.4242 24.4775 25.2256 24.681 24.9542 24.681Z" fill="#F97F34" stroke="#F97F34" stroke-width="0.75" stroke-miterlimit="10"/>
<path d="M24.9542 28.0015H6.53975C6.34118 28.0015 6.13599 27.8046 6.13599 27.6012C6.13599 27.3978 6.33456 27.2009 6.53975 27.2009H24.9542C25.1528 27.2009 25.358 27.3978 25.358 27.6012C25.4242 27.7981 25.2256 28.0015 24.9542 28.0015Z" fill="#F97F34" stroke="#F97F34" stroke-width="0.75" stroke-miterlimit="10"/>
<path d="M24.9542 31.3221H6.53975C6.34118 31.3221 6.13599 31.1252 6.13599 30.9218C6.13599 30.7183 6.33456 30.5215 6.53975 30.5215H24.9542C25.1528 30.5215 25.358 30.7183 25.358 30.9218C25.4242 31.1186 25.2256 31.3221 24.9542 31.3221Z" fill="#F97F34" stroke="#F97F34" stroke-width="0.75" stroke-miterlimit="10"/>
<path d="M24.9542 34.6426H19.5332C19.3346 34.6426 19.1294 34.4457 19.1294 34.2423C19.1294 34.0389 19.328 33.842 19.5332 33.842H24.9542C25.1528 33.842 25.358 34.0389 25.358 34.2423C25.4242 34.4392 25.2256 34.6426 24.9542 34.6426Z" fill="#F97F34" stroke="#F97F34" stroke-width="0.75" stroke-miterlimit="10"/>
<path d="M31.6528 32.1161C31.4542 32.1161 31.249 31.9192 31.249 31.7158V18.4402C31.249 18.2433 31.4476 18.0399 31.6528 18.0399C31.858 18.0399 32.0566 18.2368 32.0566 18.4402V31.7158C32.1228 31.9783 31.9242 32.1161 31.6528 32.1161Z" fill="#F97F34" stroke="#F97F34" stroke-width="0.75" stroke-miterlimit="10"/>
<path d="M28.3034 32.1161C28.1048 32.1161 27.8997 31.9192 27.8997 31.7158V18.4402C27.8997 18.2433 28.0982 18.0399 28.3034 18.0399C28.5086 18.0399 28.7072 18.2368 28.7072 18.4402V31.7158C28.7734 31.9783 28.5748 32.1161 28.3034 32.1161Z" fill="#F97F34" stroke="#F97F34" stroke-width="0.75" stroke-miterlimit="10"/>
<path d="M31.6527 34.6426H28.3034C28.1048 34.6426 27.8997 34.4457 27.8997 34.2423V31.7224C27.8997 31.5255 28.0982 31.3221 28.3034 31.3221H31.6527C31.8513 31.3221 32.0565 31.5189 32.0565 31.7224V34.2423C32.1227 34.4392 31.9241 34.6426 31.6527 34.6426ZM28.7734 33.7764H31.2489V32.1161H28.7072V33.7764H28.7734Z" fill="#F97F34" stroke="#F97F34" stroke-width="0.75" stroke-miterlimit="10"/>
<path d="M31.6527 18.8405H28.3034C28.171 18.8405 28.0387 18.7749 27.9658 18.6436C27.8997 18.578 27.8997 18.4467 27.8997 18.3089L29.5743 13.3281C29.6405 13.1313 29.7729 13.0656 29.9781 13.0656C30.1833 13.0656 30.3156 13.1969 30.3818 13.3281L32.0565 18.3089C32.1227 18.4402 32.0565 18.5714 31.9903 18.7092C31.9241 18.7749 31.7917 18.8405 31.6593 18.8405H31.6527ZM28.9058 18.0464H31.1166L30.0443 14.7915L28.9058 18.0464Z" fill="#F97F34" stroke="#F97F34" stroke-width="0.75" stroke-miterlimit="10"/>
<path d="M34.1945 32.1161H31.6528C31.4542 32.1161 31.249 31.9192 31.249 31.7158C31.249 31.5124 31.4476 31.3155 31.6528 31.3155H33.7312V25.9409C33.7312 25.7441 33.9298 25.5406 34.135 25.5406C34.3402 25.5406 34.5387 25.7375 34.5387 25.9409V31.7814C34.6049 31.9783 34.4064 32.1161 34.2012 32.1161H34.1945Z" fill="#F97F34" stroke="#F97F34" stroke-width="0.75" stroke-miterlimit="10"/>
</g>
<defs>
<clipPath id="clip0_497_246">
<rect width="39" height="39" fill="white"/>
</clipPath>
</defs>
</svg>
