<svg width="40" height="40" viewBox="0 0 40 40" fill="none" xmlns="http://www.w3.org/2000/svg">
<g clip-path="url(#clip0_489_554)">
<path d="M9.81336 37.6909H13.2809C15.2911 37.6909 15.2941 34.5591 13.2809 34.5591H9.81336C7.80328 34.5591 7.80031 37.6909 9.81336 37.6909ZM9.81336 35.7309H13.2809C13.7903 35.7309 13.7903 36.5191 13.2809 36.5191H9.81336C9.30406 36.5191 9.30406 35.7309 9.81336 35.7309Z" fill="#E97732"/>
<path d="M14.1169 20.1398L10.2998 23.957L8.97781 22.635C8.44195 22.0995 7.61343 22.9279 8.14914 23.4637L9.88547 25.2C10.1617 25.4288 10.438 25.4288 10.7141 25.2L14.9456 20.9685C15.4813 20.4327 14.6527 19.6044 14.1169 20.1398V20.1398Z" fill="#E97732"/>
<path d="M39.5647 25.9216C39.3281 25.47 39.1567 24.9753 39.0403 24.4788C38.4689 22.0887 37.6008 19.773 36.4604 17.5962L34.5536 13.9566C33.4742 11.8962 30.2887 12.2387 29.6873 14.4987C28.2608 13.9855 26.6505 14.829 26.2604 16.294C25.0811 15.8696 23.7193 16.3695 23.0941 17.4541V4.58773V2.2893C23.094 1.02703 22.0671 0 20.8046 0H7.15463C6.39705 0 6.39705 1.17188 7.15463 1.17188H20.8046C21.4208 1.17188 21.9221 1.67312 21.9221 2.2893V4.0018H1.17236V2.2893C1.17236 1.67312 1.67361 1.17188 2.28979 1.17188H3.87346C4.63104 1.17188 4.63104 0 3.87346 0H2.28979C1.02752 0 0.000488281 1.02703 0.000488281 2.2893V4.58773V32.8288V37.7107C0.000488281 38.973 1.02752 40 2.28979 40H20.8046C22.067 40 23.094 38.973 23.094 37.7107V32.8288V30.4818L25.1878 31.5174C25.7053 31.7734 26.1305 32.1995 26.3853 32.7174C27.3155 34.6077 29.6996 35.3913 31.5722 34.4102L35.0632 32.5813C35.7343 32.2297 35.1905 31.1917 34.5194 31.5432L31.0284 33.3721C29.7317 34.0518 28.0832 33.5135 27.4368 32.2C27.0688 31.4521 26.4546 30.8366 25.7074 30.467L16.822 26.072C15.1531 25.2614 16.36 22.6434 18.0549 23.4338L21.2811 25.1322C21.7788 25.3942 22.3341 24.8402 22.0731 24.3419L16.4685 13.6441C15.5481 11.9139 18.0128 10.3169 18.9528 12.1116L22.9144 19.6731L23.9492 21.6483C24.2907 22.3005 25.3378 21.7738 24.9872 21.1045L23.9798 19.1816C23.5718 17.8221 25.2502 16.726 26.3304 17.6737L27.4514 19.8134C27.793 20.4657 28.8401 19.939 28.4895 19.2696L27.3496 17.094C27.243 15.8441 28.7736 15.0397 29.7412 15.8641L30.8695 18.0179C31.211 18.6702 32.2581 18.1434 31.9075 17.4741L30.779 15.32C30.6255 13.786 32.7845 13.105 33.5154 14.5004L35.4222 18.1399C36.5177 20.2309 37.3515 22.4553 37.9005 24.751C38.0337 25.3466 38.2433 25.9245 38.5266 26.4652C39.2017 27.7538 38.7025 29.3514 37.414 30.0266C36.743 30.3783 37.2869 31.4163 37.9578 31.0646C39.8188 30.0897 40.5397 27.7825 39.5647 25.9216V25.9216ZM21.9221 37.7107C21.9221 38.3269 21.4208 38.8281 20.8046 38.8281H2.28979C1.67361 38.8281 1.17236 38.3269 1.17236 37.7107V33.4147H21.9221V37.7107ZM15.0663 23.6247C14.6685 24.4608 14.7458 25.4622 15.2641 26.229C14.2951 27.243 12.9657 27.8176 11.5472 27.8176C8.70877 27.8176 6.39955 25.5084 6.39955 22.6699C6.39955 19.8315 8.70877 17.5223 11.5472 17.5223C14.2404 17.5223 16.4557 19.6016 16.6754 22.2391C15.9814 22.4508 15.3782 22.9687 15.0663 23.6247V23.6247ZM19.3206 10.7472C19.0652 10.5398 18.7704 10.3802 18.4468 10.2791C16.5699 9.69266 14.6797 11.4137 15.0928 13.3358H3.96908C3.86135 13.3358 3.77377 13.2482 3.77377 13.1405V8.95312C3.77377 8.84539 3.86135 8.75781 3.96908 8.75781H19.1253C19.2331 8.75781 19.3206 8.84539 19.3206 8.95312V10.7472ZM21.9221 15.2541L20.4925 12.5254V8.95312C20.4925 8.1993 19.8792 7.58594 19.1253 7.58594H3.96908C3.21525 7.58594 2.60189 8.1993 2.60189 8.95312V13.1405C2.60189 13.8944 3.21525 14.5077 3.96908 14.5077H15.5978L20.1617 23.2188L18.5893 22.391C18.5824 22.3873 18.5753 22.3837 18.5681 22.3804C18.3353 22.2696 18.0918 22.1949 17.8441 22.156C17.5814 18.9111 14.8586 16.3504 11.5473 16.3504C8.06268 16.3504 5.22775 19.1853 5.22775 22.6699C5.22775 26.1545 8.06268 28.9895 11.5473 28.9895C13.2949 28.9895 14.9337 28.2808 16.1242 27.0277C17.9831 28.099 19.9988 28.9508 21.9221 29.9021V32.2427H1.17236V5.17367H21.9221V15.2541Z" fill="#E97732"/>
</g>
<defs>
<clipPath id="clip0_489_554">
<rect width="40" height="40" fill="white"/>
</clipPath>
</defs>
</svg>
