<svg width="44" height="44" viewBox="0 0 44 44" fill="none" xmlns="http://www.w3.org/2000/svg">
<g clip-path="url(#clip0_489_552)">
<path d="M40.0808 7.5978C34.027 5.93903 27.9375 3.35619 22.4708 0.128553C22.1804 -0.0428918 21.8201 -0.0428918 21.5298 0.128553C15.9054 3.44891 10.145 5.89203 3.91925 7.5978C3.51706 7.70788 3.23828 8.07346 3.23828 8.49051V17.9476C3.23828 27.6862 7.731 34.1326 11.5 37.8254C15.5577 41.8013 20.2842 44 22.0003 44C23.7162 44 28.4428 41.8013 32.5004 37.8254C36.2693 34.1327 40.7618 27.6863 40.7618 17.9476V8.49043C40.7618 8.07346 40.483 7.70788 40.0808 7.5978ZM38.9107 17.9475C38.9107 27.0433 34.7203 33.0585 31.2048 36.5031C27.2146 40.4128 22.9484 42.1487 22.0003 42.1487C21.0521 42.1487 16.7857 40.4128 12.7955 36.5031C9.28002 33.0584 5.08946 27.0433 5.08946 17.9475V9.19305C11.043 7.50266 16.5875 5.1436 22.0005 1.99803C27.2782 5.06015 33.0994 7.53652 38.9107 9.19271V17.9475Z" fill="#E97732"/>
<path d="M13.7962 9.08949C13.6089 8.61383 13.0715 8.38017 12.5957 8.5676C10.9423 9.21909 9.24521 9.81876 7.55165 10.35C7.1657 10.4712 6.90308 10.8287 6.90308 11.2331V14.8073C6.90308 15.3185 7.31755 15.7329 7.82862 15.7329C8.33969 15.7329 8.75417 15.3185 8.75417 14.8073V11.9095C10.2735 11.418 11.7911 10.8742 13.2743 10.2898C13.75 10.1025 13.9836 9.56516 13.7962 9.08949Z" fill="#E97732"/>
<path d="M15.5544 9.26506C15.6785 9.26506 15.8046 9.24005 15.9255 9.18729L15.9425 9.17989C16.4108 8.97468 16.6217 8.42958 16.4165 7.96148C16.2111 7.49321 15.6629 7.28137 15.1951 7.48642L15.1802 7.49286C14.7117 7.69748 14.5001 8.24215 14.7047 8.71051C14.8566 9.05821 15.1973 9.26506 15.5544 9.26506Z" fill="#E97732"/>
<path d="M33.0278 29.8446C32.6001 29.565 32.0266 29.6852 31.7467 30.1131C30.984 31.2805 30.0892 32.3984 29.0868 33.4354C28.2625 34.288 27.3693 35.0828 26.4319 35.7974C26.0255 36.1072 25.9473 36.688 26.2571 37.0946C26.4394 37.3334 26.715 37.459 26.9938 37.459C27.1896 37.459 27.3868 37.3972 27.5544 37.2694C28.5654 36.4984 29.5288 35.6414 30.4175 34.722C31.5013 33.6011 32.4698 32.3911 33.2964 31.1256C33.5761 30.6977 33.4557 30.1241 33.0278 29.8446Z" fill="#E97732"/>
<path d="M24.2822 37.2489L24.2291 37.2802C23.7868 37.5364 23.6357 38.1025 23.8917 38.5449C24.0634 38.8413 24.374 39.0069 24.6936 39.0069C24.8509 39.0069 25.0105 38.9667 25.1564 38.8821L25.2176 38.8461C25.6588 38.5877 25.8069 38.0208 25.5486 37.5797C25.2901 37.1387 24.7231 36.9908 24.2822 37.2489Z" fill="#E97732"/>
<path d="M15.6912 20.111C15.1229 19.5426 14.3671 19.2298 13.5632 19.2298C12.7594 19.2298 12.0035 19.5427 11.4349 20.111C10.2616 21.2845 10.2616 23.1941 11.4349 24.3675L16.9002 29.8326C17.4686 30.4009 18.2244 30.7138 19.0283 30.7138C19.8323 30.7138 20.5881 30.4009 21.1566 29.8325L32.5657 18.4233C33.7389 17.2494 33.7389 15.3402 32.5655 14.167C31.9971 13.5986 31.2413 13.2858 30.4373 13.2858C29.6333 13.2858 28.8775 13.5987 28.309 14.167L19.0282 23.4478L15.6912 20.111ZM29.618 15.476C29.8368 15.2573 30.1278 15.1369 30.4374 15.1369C30.7471 15.1369 31.0379 15.2573 31.2568 15.476C31.7084 15.9276 31.7084 16.6627 31.2566 17.1145L19.8477 28.5236C19.6289 28.7423 19.3379 28.8627 19.0283 28.8627C18.7188 28.8627 18.4277 28.7423 18.2089 28.5236L12.7438 23.0586C12.292 22.6069 12.292 21.8717 12.7436 21.4201C12.9624 21.2014 13.2535 21.0809 13.5631 21.0809C13.8728 21.0809 14.1637 21.2013 14.3824 21.42L18.3737 25.4114C18.5474 25.5849 18.7827 25.6825 19.0282 25.6825C19.2738 25.6825 19.5091 25.585 19.6826 25.4114L29.618 15.476Z" fill="#E97732"/>
</g>
<defs>
<clipPath id="clip0_489_552">
<rect width="44" height="44" fill="white"/>
</clipPath>
</defs>
</svg>
