<svg width="1218" height="656" viewBox="0 0 1218 656" fill="none" xmlns="http://www.w3.org/2000/svg">
<path d="M958.034 174.226C959.365 173.428 961.362 173.028 964.024 173.028H1012.34C1013.67 173.028 1014.74 173.561 1015.54 174.626C1016.6 175.424 1017.14 176.489 1017.14 177.82V447.772C1017.14 449.103 1016.6 450.301 1015.54 451.366C1014.74 452.165 1013.67 452.564 1012.34 452.564H965.621C964.29 452.564 963.092 452.165 962.027 451.366C961.229 450.301 960.829 449.103 960.829 447.772V228.935C960.829 228.403 960.563 227.871 960.031 227.338C959.498 226.806 958.966 226.673 958.433 226.939L918.899 237.721L917.302 238.12C914.906 238.12 913.708 236.656 913.708 233.728L912.51 199.385C912.51 196.722 913.708 194.859 916.104 193.794L958.034 174.226Z" fill="#F97F34"/>
<path d="M363.285 452.564C361.954 452.564 360.756 452.165 359.691 451.366C358.893 450.301 358.493 449.103 358.493 447.772V177.82C358.493 176.489 358.893 175.424 359.691 174.626C360.756 173.561 361.954 173.028 363.285 173.028H410.008C411.339 173.028 412.404 173.561 413.203 174.626C414.267 175.424 414.8 176.489 414.8 177.82V402.248C414.8 403.579 415.465 404.244 416.797 404.244H547.38C548.711 404.244 549.776 404.777 550.575 405.842C551.639 406.641 552.172 407.705 552.172 409.037V447.772C552.172 449.103 551.639 450.301 550.575 451.366C549.776 452.165 548.711 452.564 547.38 452.564H363.285Z" fill="#F5F5F5"/>
<path d="M687.494 452.564C684.832 452.564 683.101 451.233 682.303 448.571L670.323 409.436C669.79 408.371 669.125 407.839 668.326 407.839H570.089C569.29 407.839 568.625 408.371 568.092 409.436L556.512 448.571C555.713 451.233 553.982 452.564 551.32 452.564H500.604C499.007 452.564 497.809 452.165 497.01 451.366C496.212 450.301 496.078 448.837 496.611 446.974L582.868 177.022C583.666 174.359 585.397 173.028 588.059 173.028H650.755C653.417 173.028 655.148 174.359 655.946 177.022L742.203 446.974C742.47 447.506 742.603 448.172 742.603 448.97C742.603 451.366 741.138 452.564 738.21 452.564H687.494ZM582.468 361.915C582.202 363.512 582.735 364.311 584.066 364.311H654.349C655.946 364.311 656.479 363.512 655.946 361.915L620.006 243.312C619.74 242.247 619.341 241.847 618.808 242.114C618.276 242.114 617.876 242.513 617.61 243.312L582.468 361.915Z" fill="#F5F5F5"/>
<path d="M859.568 306.806C857.97 307.605 857.97 308.404 859.568 309.202C884.859 322.247 897.505 343.945 897.505 374.294C897.505 400.118 888.719 419.686 871.149 432.997C853.578 446.042 830.549 452.564 802.063 452.564H698.635C697.304 452.564 696.106 452.165 695.041 451.366C694.242 450.301 693.843 449.103 693.843 447.772V177.82C693.843 176.489 694.242 175.424 695.041 174.626C696.106 173.561 697.304 173.028 698.635 173.028H798.869C861.964 173.028 893.512 198.586 893.512 249.701C893.512 276.323 882.197 295.359 859.568 306.806ZM752.146 221.348C750.815 221.348 750.149 222.014 750.149 223.345V285.641C750.149 286.972 750.815 287.638 752.146 287.638H798.869C811.381 287.638 821.098 284.71 828.02 278.853C834.942 272.996 838.403 265.009 838.403 254.892C838.403 244.51 834.942 236.39 828.02 230.533C821.098 224.41 811.381 221.348 798.869 221.348H752.146ZM802.063 403.845C814.31 403.845 823.894 400.784 830.816 394.66C837.737 388.271 841.198 379.619 841.198 368.703C841.198 357.788 837.737 349.269 830.816 343.146C823.894 336.757 814.177 333.562 801.664 333.562H752.146C750.815 333.562 750.149 334.227 750.149 335.559V401.848C750.149 403.18 750.815 403.845 752.146 403.845H802.063Z" fill="#F5F5F5"/>
<path d="M1029.9 474.052L179 474.053L331.392 257.705L331.392 421.588M1030.4 474.052C1030.4 478.911 1034.34 482.85 1039.2 482.85C1044.06 482.85 1048 478.911 1048 474.052C1048 469.193 1044.06 465.255 1039.2 465.255C1034.34 465.255 1030.4 469.193 1030.4 474.052ZM322.594 430.639C322.594 435.497 326.533 439.436 331.392 439.436C336.25 439.436 340.189 435.497 340.189 430.639C340.189 425.78 336.25 421.841 331.392 421.841C326.533 421.841 322.594 425.78 322.594 430.639Z" stroke="#F97F34" stroke-width="5.86502"/>
</svg>
