<svg width="190" height="103" viewBox="0 0 190 103" fill="none" xmlns="http://www.w3.org/2000/svg">
<path d="M149.101 27.115C149.308 26.9907 149.619 26.9286 150.033 26.9286H157.553C157.76 26.9286 157.926 27.0115 158.05 27.1772C158.216 27.3015 158.299 27.4672 158.299 27.6744V69.6876C158.299 69.8947 158.216 70.0812 158.05 70.2469C157.926 70.3712 157.76 70.4334 157.553 70.4334H150.282C150.074 70.4334 149.888 70.3712 149.722 70.2469C149.598 70.0812 149.536 69.8947 149.536 69.6876V35.6295C149.536 35.5467 149.494 35.4638 149.411 35.3809C149.329 35.2981 149.246 35.2774 149.163 35.3188L143.01 36.9968L142.761 37.059C142.389 37.059 142.202 36.8311 142.202 36.3753L142.016 31.0305C142.016 30.6161 142.202 30.3261 142.575 30.1604L149.101 27.115Z" fill="#F97F34"/>
<path d="M56.5389 70.4336C56.3317 70.4336 56.1453 70.3714 55.9795 70.2471C55.8552 70.0814 55.7931 69.895 55.7931 69.6878V27.6746C55.7931 27.4675 55.8552 27.3017 55.9795 27.1774C56.1453 27.0117 56.3317 26.9288 56.5389 26.9288H63.8104C64.0176 26.9288 64.1833 27.0117 64.3076 27.1774C64.4733 27.3017 64.5562 27.4675 64.5562 27.6746V62.6027C64.5562 62.8099 64.6598 62.9135 64.8669 62.9135H85.1899C85.397 62.9135 85.5628 62.9964 85.6871 63.1621C85.8528 63.2864 85.9357 63.4521 85.9357 63.6593V69.6878C85.9357 69.895 85.8528 70.0814 85.6871 70.2471C85.5628 70.3714 85.397 70.4336 85.1899 70.4336H56.5389Z" fill="#F5F5F5"/>
<path d="M106.996 70.4336C106.582 70.4336 106.312 70.2264 106.188 69.8121L104.324 63.7214C104.241 63.5557 104.137 63.4728 104.013 63.4728H88.7241C88.5998 63.4728 88.4963 63.5557 88.4134 63.7214L86.6111 69.8121C86.4868 70.2264 86.2174 70.4336 85.8031 70.4336H77.9101C77.6615 70.4336 77.4751 70.3714 77.3508 70.2471C77.2265 70.0814 77.2057 69.8535 77.2886 69.5635L90.7129 27.5503C90.8372 27.136 91.1065 26.9288 91.5209 26.9288H101.278C101.693 26.9288 101.962 27.136 102.086 27.5503L115.511 69.5635C115.552 69.6464 115.573 69.7499 115.573 69.8742C115.573 70.2471 115.345 70.4336 114.889 70.4336H106.996ZM90.6508 56.3256C90.6094 56.5742 90.6922 56.6985 90.8994 56.6985H101.838C102.086 56.6985 102.169 56.5742 102.086 56.3256L96.4929 37.8672C96.4514 37.7014 96.3893 37.6393 96.3064 37.6807C96.2235 37.6807 96.1614 37.7429 96.12 37.8672L90.6508 56.3256Z" fill="#F5F5F5"/>
<path d="M133.776 47.749C133.528 47.8733 133.528 47.9976 133.776 48.1219C137.712 50.1521 139.681 53.5289 139.681 58.2523C139.681 62.2713 138.313 65.3166 135.579 67.3883C132.844 69.4185 129.26 70.4336 124.827 70.4336H108.73C108.523 70.4336 108.336 70.3714 108.171 70.2471C108.046 70.0814 107.984 69.895 107.984 69.6878V27.6746C107.984 27.4675 108.046 27.3017 108.171 27.1774C108.336 27.0117 108.523 26.9288 108.73 26.9288H124.33C134.149 26.9288 139.059 30.9064 139.059 38.8616C139.059 43.0049 137.298 45.9673 133.776 47.749ZM117.058 34.4489C116.851 34.4489 116.747 34.5525 116.747 34.7597V44.455C116.747 44.6622 116.851 44.7658 117.058 44.7658H124.33C126.277 44.7658 127.789 44.31 128.867 43.3985C129.944 42.487 130.482 41.244 130.482 39.6695C130.482 38.0536 129.944 36.7899 128.867 35.8784C127.789 34.9254 126.277 34.4489 124.33 34.4489H117.058ZM124.827 62.8513C126.733 62.8513 128.224 62.3749 129.302 61.4219C130.379 60.4275 130.917 59.0809 130.917 57.3822C130.917 55.6834 130.379 54.3575 129.302 53.4046C128.224 52.4102 126.712 51.913 124.765 51.913H117.058C116.851 51.913 116.747 52.0166 116.747 52.2237V62.5406C116.747 62.7478 116.851 62.8513 117.058 62.8513H124.827Z" fill="#F5F5F5"/>
<path d="M160.285 73.7776L27.8582 73.7777L51.5752 40.1071L51.5752 65.6126M160.364 73.7776C160.364 74.5338 160.977 75.1468 161.733 75.1468C162.489 75.1468 163.102 74.5338 163.102 73.7776C163.102 73.0215 162.489 72.4085 161.733 72.4085C160.977 72.4085 160.364 73.0215 160.364 73.7776ZM50.206 67.0211C50.206 67.7773 50.819 68.3903 51.5752 68.3903C52.3313 68.3903 52.9443 67.7773 52.9443 67.0211C52.9443 66.265 52.3313 65.652 51.5752 65.652C50.819 65.652 50.206 66.265 50.206 67.0211Z" stroke="#F97F34" stroke-width="0.912784"/>
</svg>
