<svg width="40" height="40" viewBox="0 0 40 40" fill="none" xmlns="http://www.w3.org/2000/svg">
<path d="M30.5446 34.377C30.1473 34.5935 29.7444 34.8169 29.3364 35.0431C25.8841 36.9571 21.9713 39.1267 18.2105 38.7908L4.89242 37.6019C4.87508 37.6003 4.85766 37.5996 4.84023 37.5996H1.17414V31.0087H4.84016C4.97898 31.0087 5.11336 30.9595 5.2193 30.8699C5.22969 30.8611 6.27883 29.9796 7.87602 29.1499C8.16375 29.0005 8.27578 28.646 8.12641 28.3583C7.97687 28.0706 7.62258 27.9585 7.33477 28.108C5.98805 28.8076 5.01109 29.5361 4.6325 29.8346H0.587109C0.262891 29.8346 0 30.0974 0 30.4217V38.1867C0 38.5109 0.262812 38.7738 0.587109 38.7738H4.81398L18.1061 39.9604C18.4063 39.9872 18.7059 40 19.0055 40C22.8173 40 26.5682 37.9205 29.9057 36.0701C30.3112 35.8453 30.7116 35.6233 31.1064 35.4081C31.3911 35.2529 31.4962 34.8964 31.341 34.6117C31.1859 34.3268 30.8295 34.2218 30.5446 34.377Z" fill="#F97F34"/>
<path d="M39.5467 27.874C38.9225 27.0466 37.8349 26.7608 36.8963 27.1538C36.8723 26.7783 36.7452 26.4125 36.5225 26.1008C35.9355 25.279 34.8195 25.0142 33.9266 25.4849L32.5303 26.2207C32.5124 25.8928 32.4157 25.5702 32.2433 25.2852C31.6863 24.3644 30.5092 24.0446 29.5635 24.5572L28.5199 25.123C28.501 24.7173 28.3636 24.3218 28.1184 23.988C27.5064 23.1552 26.3985 22.8991 25.4838 23.3788L17.9496 27.3304C17.1024 27.0051 14.4014 26.1253 11.2457 26.7128C10.7013 26.8142 10.1405 26.9608 9.57861 27.1487C9.27111 27.2515 9.10517 27.5841 9.20791 27.8916C9.3108 28.1991 9.64353 28.3649 9.95088 28.2623C10.4615 28.0916 10.9694 27.9587 11.4606 27.8672C14.8293 27.2399 17.7122 28.5001 17.7401 28.5125C17.8158 28.5465 17.8978 28.5641 17.9807 28.5641H25.8229C26.3801 28.5641 26.8334 29.0187 26.8334 29.5774C26.8334 30.0867 26.4534 30.5189 25.9495 30.5828L16.0101 31.8417C15.716 31.8789 15.4959 32.1295 15.4968 32.4258C15.4977 32.7222 15.7194 32.9714 16.0136 33.0069L20.2349 33.5157C24.3241 34.0085 28.3888 33.2109 31.9899 31.209L37.2649 28.2766C37.729 28.0348 38.2935 28.1624 38.6093 28.5811C39.0038 29.0791 38.8324 29.8777 38.2674 30.1685L32.6074 33.2529C31.9307 33.6085 32.5107 34.6589 33.1693 34.2839L38.8292 31.1995C39.4028 30.887 39.811 30.3413 39.9491 29.7022C40.0873 29.0625 39.9406 28.3962 39.5467 27.874ZM26.0292 24.4186C26.426 24.2106 26.9066 24.3218 27.1723 24.6833C27.4987 25.1042 27.3505 25.772 26.876 26.0142L24.3385 27.3899H20.3642L26.0292 24.4186ZM26.5632 27.5194L30.1231 25.5894C30.5167 25.376 31.0067 25.5095 31.2387 25.8931C31.4916 26.2902 31.3333 26.8638 30.9118 27.0738L27.8242 28.7011C27.5843 28.1542 27.1276 27.7235 26.5632 27.5194ZM31.4194 30.1828C28.1903 31.9779 24.5642 32.7425 20.9006 32.4057L26.0971 31.7475C27.0612 31.6255 27.8149 30.8803 27.9755 29.9485L34.474 26.5235C34.8498 26.3255 35.3197 26.437 35.567 26.7832C35.8665 27.1811 35.7274 27.802 35.2862 28.0331L31.4194 30.1828Z" fill="#F97F34"/>
<path d="M13.6711 15.952C14.3341 15.952 14.972 15.8085 15.5669 15.5257C15.8597 15.3864 15.9842 15.0361 15.8449 14.7433C15.7057 14.4506 15.3556 14.326 15.0626 14.4653C14.6266 14.6726 14.1584 14.7778 13.6711 14.7778C11.882 14.7778 10.4263 13.3221 10.4263 11.533C10.4263 9.74386 11.882 8.28831 13.6711 8.28831C15.4602 8.28831 16.9159 9.74386 16.9159 11.533C16.9159 12.0808 16.777 12.622 16.5142 13.0981C16.3576 13.382 16.4606 13.7391 16.7445 13.8957C17.0285 14.0524 17.3856 13.9492 17.5422 13.6654C17.9006 13.016 18.09 12.2787 18.09 11.5329C18.09 9.09628 16.1077 7.11401 13.6711 7.11401C11.2345 7.11401 9.2522 9.09628 9.2522 11.5329C9.2522 13.9696 11.2345 15.952 13.6711 15.952Z" fill="#F97F34"/>
<path d="M4.50355 13.2784L5.72035 13.4613C5.91902 14.2856 6.24254 15.0664 6.68582 15.7909L5.95434 16.7812C5.60871 17.2491 5.65645 17.8873 6.06785 18.2985L6.90551 19.1362C7.31684 19.5476 7.95504 19.5953 8.42293 19.2497L9.41309 18.5183C10.1376 18.9616 10.9183 19.2852 11.7427 19.4838L11.9257 20.7006C12.0121 21.2759 12.4971 21.6934 13.0788 21.6934H14.2634C14.8451 21.6934 15.3301 21.2759 15.4165 20.7005L15.5994 19.4838C16.4238 19.2852 17.2045 18.9616 17.929 18.5183L18.9193 19.2498C19.3871 19.5953 20.0254 19.5477 20.4366 19.1363L21.2743 18.2987C21.6857 17.8874 21.7334 17.2492 21.3878 16.7812L20.6564 15.7911C21.0996 15.0666 21.4232 14.2859 21.6218 13.4615L22.8386 13.2786C23.4138 13.1921 23.8314 12.7072 23.8314 12.1254V12.1201H27.3154V19.603C27.3154 20.358 27.9296 20.9722 28.6846 20.9722H31.1927C31.4612 22.1689 32.5315 23.066 33.8081 23.066C35.2864 23.066 36.4891 21.8634 36.4891 20.385C36.4891 18.9067 35.2864 17.704 33.8081 17.704C32.5314 17.704 31.4611 18.6012 31.1926 19.798H28.6845C28.577 19.798 28.4896 19.7105 28.4896 19.603V12.1201H31.1926C31.4611 13.3169 32.5314 14.2141 33.8081 14.2141C35.2864 14.2141 36.4891 13.0114 36.4891 11.533C36.4891 10.0547 35.2864 8.85203 33.8081 8.85203C32.5315 8.85203 31.4612 9.74914 31.1926 10.9459H28.4897V3.46305C28.4897 3.35555 28.5772 3.26813 28.6847 3.26813H31.1928C31.4613 4.46492 32.5316 5.36203 33.8082 5.36203C35.2865 5.36203 36.4893 4.15938 36.4893 2.68102C36.4893 1.20266 35.2864 0 33.8082 0C32.5316 0 31.4613 0.897109 31.1927 2.09391H28.6846C27.9296 2.09391 27.3154 2.70805 27.3154 3.46297V10.9458H23.8314V10.9406C23.8314 10.359 23.4139 9.87398 22.8386 9.7875L21.6218 9.60461C21.4232 8.78023 21.0996 7.99953 20.6564 7.275L21.3878 6.28484C21.7334 5.81687 21.6857 5.17867 21.2743 4.76742L20.4367 3.92969C20.0254 3.51836 19.3872 3.4707 18.9193 3.81625L17.9291 4.54766C17.2045 4.10437 16.4238 3.78078 15.5995 3.58219L15.4166 2.36539C15.3302 1.79016 14.8452 1.37258 14.2635 1.37258H13.0788C12.4971 1.37258 12.0121 1.79008 11.9257 2.36539L11.7427 3.58219C10.9184 3.78086 10.1377 4.10437 9.41309 4.54766L8.42293 3.81625C7.95512 3.47062 7.31684 3.51828 6.90551 3.92969L6.06785 4.76727C5.65645 5.17859 5.60871 5.8168 5.95434 6.28469L6.68574 7.27484C6.24246 7.99937 5.91887 8.78016 5.72027 9.60445L4.50348 9.78734C3.92824 9.87383 3.51074 10.3588 3.51074 10.9405V12.1251C3.51074 12.707 3.92832 13.192 4.50355 13.2784ZM33.8082 18.878C34.639 18.878 35.315 19.554 35.315 20.3848C35.315 21.2157 34.639 21.8916 33.8082 21.8916C32.9773 21.8916 32.3014 21.2157 32.3014 20.3848C32.3014 19.554 32.9773 18.878 33.8082 18.878ZM33.8082 10.0261C34.639 10.0261 35.315 10.702 35.315 11.5329C35.315 12.3638 34.639 13.0397 33.8082 13.0397C32.9773 13.0397 32.3014 12.3638 32.3014 11.5329C32.3014 10.702 32.9773 10.0261 33.8082 10.0261ZM33.8082 1.17414C34.639 1.17414 35.315 1.85008 35.315 2.68094C35.315 3.5118 34.639 4.18773 33.8082 4.18773C32.9773 4.18773 32.3014 3.5118 32.3014 2.68094C32.3014 1.85016 32.9773 1.17414 33.8082 1.17414ZM4.68488 10.9475L6.29637 10.7052C6.54355 10.6681 6.74012 10.4785 6.78613 10.2329C6.96504 9.27875 7.33441 8.38758 7.88379 7.58406C8.02481 7.37781 8.01988 7.10484 7.87137 6.90383L6.90293 5.59266L7.73082 4.76484L9.04199 5.73336C9.24293 5.8818 9.51582 5.8868 9.72215 5.74578C10.5257 5.19633 11.4169 4.82703 12.371 4.64805C12.6166 4.60203 12.8061 4.40547 12.8433 4.15828L13.0856 2.5468H14.2564L14.4986 4.15828C14.5358 4.40547 14.7254 4.60203 14.971 4.64805C15.925 4.82695 16.8163 5.19633 17.6198 5.74578C17.8261 5.88687 18.099 5.8818 18.3 5.73336L19.6112 4.76484L20.4391 5.59266L19.4707 6.90391C19.3222 7.10484 19.3172 7.37781 19.4582 7.58414C20.0077 8.38766 20.377 9.27883 20.556 10.233C20.6021 10.4787 20.7986 10.6682 21.0457 10.7054L22.6572 10.9477V12.1184L21.0457 12.3607C20.7986 12.3978 20.6021 12.5874 20.556 12.833C20.377 13.7873 20.0077 14.6784 19.4582 15.482C19.3172 15.6882 19.3221 15.9612 19.4707 16.1621L20.4392 17.4733L19.6113 18.3012L18.3001 17.3327C18.0992 17.1842 17.8262 17.1792 17.6199 17.3203C16.8164 17.8698 15.9252 18.2391 14.971 18.418C14.7254 18.4641 14.5358 18.6607 14.4986 18.9078L14.2564 20.5193H13.0856L12.8433 18.9078C12.8061 18.6607 12.6166 18.4641 12.371 18.418C11.4168 18.2391 10.5256 17.8698 9.72207 17.3203C9.51582 17.1793 9.24293 17.1842 9.04191 17.3327L7.73074 18.3012L6.90285 17.4733L7.87137 16.1621C8.0198 15.9612 8.02481 15.6881 7.88379 15.482C7.33434 14.6784 6.96504 13.7873 6.78613 12.8331C6.74004 12.5875 6.54355 12.3979 6.29637 12.3608L4.68488 12.1185V10.9475Z" fill="#F97F34"/>
</svg>
