<svg width="50" height="50" viewBox="0 0 50 50" fill="none" xmlns="http://www.w3.org/2000/svg">
<path d="M49.2437 11.5484C49.2402 11.5273 49.241 11.505 49.2355 11.4843C49.2204 11.4274 49.1979 11.3726 49.1687 11.3215C49.1589 11.3039 49.1441 11.2898 49.1324 11.2734C49.1114 11.2404 49.0876 11.2093 49.0613 11.1804C49.0453 11.164 49.025 11.1527 49.0074 11.1379C48.9813 11.1138 48.9533 11.0919 48.9238 11.0722L48.9187 11.0703L48.9144 11.0672L43.2031 7.79489C43.0996 7.73566 42.9825 7.70449 42.8632 7.70449C42.744 7.70449 42.6269 7.73566 42.5234 7.79489L36.8089 11.0668L36.8046 11.0699L36.7996 11.0718C36.7699 11.0916 36.7418 11.1137 36.7156 11.1379C36.698 11.1523 36.6765 11.164 36.6621 11.18C36.6354 11.2093 36.6114 11.2408 36.5902 11.2742C36.5789 11.2906 36.5644 11.3043 36.5546 11.3215C36.5255 11.3727 36.503 11.4274 36.4878 11.4843C36.4824 11.5043 36.4832 11.5258 36.4796 11.5461C36.4715 11.5835 36.4665 11.6215 36.4648 11.6597V13.0523L31.3824 9.8695C31.3898 9.83529 31.3945 9.80055 31.3964 9.7656V4.05231C31.3946 4.01473 31.3897 3.97735 31.3816 3.9406C31.3781 3.9195 31.3789 3.89724 31.3734 3.87653C31.3582 3.81972 31.3358 3.7651 31.3066 3.71403C31.2929 3.69374 31.2782 3.67418 31.2625 3.65544C31.2436 3.6264 31.2226 3.59884 31.1996 3.57302C31.179 3.55483 31.1573 3.53787 31.1347 3.52224C31.1116 3.50142 31.0871 3.48223 31.0613 3.46481H31.0574L31.0546 3.45896L25.3398 0.187081C25.2363 0.127843 25.1192 0.0966797 25 0.0966797C24.8807 0.0966797 24.7636 0.127843 24.6601 0.187081L18.9453 3.45896L18.9406 3.46247H18.9367C18.9107 3.48 18.8861 3.49932 18.8628 3.52028C18.8404 3.5358 18.8189 3.55263 18.7984 3.57067C18.775 3.59685 18.7537 3.6248 18.7347 3.65427C18.7193 3.67265 18.7048 3.69181 18.6914 3.71169C18.6622 3.76288 18.6397 3.81763 18.6246 3.87458C18.6191 3.8945 18.6199 3.91599 18.6164 3.9363C18.6082 3.9737 18.6032 4.01173 18.6015 4.04997V9.7656C18.6035 9.80068 18.6082 9.83555 18.6156 9.86989L13.5343 13.0523V11.6601C13.5325 11.6225 13.5276 11.5852 13.5195 11.5484C13.516 11.5273 13.5167 11.505 13.5113 11.4843C13.4961 11.4274 13.4737 11.3726 13.4445 11.3215C13.4347 11.3039 13.4199 11.2898 13.4082 11.2734C13.3872 11.2404 13.3634 11.2093 13.3371 11.1804C13.321 11.164 13.3007 11.1527 13.2832 11.1379C13.2571 11.1138 13.2291 11.0919 13.1996 11.0722L13.1945 11.0703L13.1902 11.0672L7.47808 7.79489C7.37461 7.73566 7.25746 7.70449 7.13823 7.70449C7.01901 7.70449 6.90186 7.73566 6.79839 7.79489L1.08511 11.0668L1.08081 11.0699L1.07573 11.0718C1.04603 11.0916 1.01795 11.1137 0.991748 11.1379C0.97417 11.1523 0.952686 11.164 0.938232 11.18C0.911574 11.2093 0.887524 11.2408 0.866357 11.2742C0.855029 11.2906 0.840576 11.3043 0.830811 11.3215C0.801629 11.3727 0.779178 11.4274 0.764014 11.4843C0.758545 11.5043 0.759326 11.5258 0.755811 11.5461C0.747631 11.5835 0.742665 11.6215 0.740967 11.6597V17.373C0.74095 17.4958 0.773985 17.6163 0.836601 17.7218C0.899218 17.8274 0.989106 17.9142 1.09683 17.973L6.45425 20.8984V28.7258L1.08511 31.8008L1.08081 31.8039L1.07573 31.8058C1.04603 31.8256 1.01795 31.8477 0.991748 31.8718C0.97417 31.8863 0.952686 31.898 0.938232 31.914C0.911574 31.9433 0.887524 31.9748 0.866357 32.0082C0.855029 32.0246 0.840576 32.0382 0.830811 32.0554C0.801629 32.1066 0.779178 32.1614 0.764014 32.2183C0.758545 32.2382 0.759326 32.2597 0.755811 32.28C0.747631 32.3174 0.742665 32.3555 0.740967 32.3937V38.107C0.741027 38.2298 0.774179 38.3504 0.836937 38.4559C0.899695 38.5615 0.989741 38.6483 1.09761 38.707L6.8105 41.8254C6.84261 41.841 6.87592 41.8541 6.91011 41.8644C6.92847 41.8711 6.94565 41.8808 6.9644 41.8855C7.07809 41.9165 7.19798 41.9165 7.31167 41.8855C7.33042 41.8804 7.34761 41.8707 7.36597 41.8644C7.40015 41.8541 7.43346 41.841 7.46558 41.8254L12.3164 39.1773L18.6054 43.3644V46.1976C18.6054 46.3204 18.6384 46.4409 18.7011 46.5464C18.7637 46.652 18.8536 46.7388 18.9613 46.7976L24.6742 49.916C24.7063 49.9316 24.7396 49.9447 24.7738 49.955C24.7921 49.9617 24.8093 49.9715 24.8281 49.9761C24.9418 50.0071 25.0617 50.0071 25.1753 49.9761C25.1941 49.9711 25.2113 49.9613 25.2296 49.955C25.2638 49.9447 25.2971 49.9316 25.3293 49.916L31.0406 46.7968C31.1483 46.738 31.2382 46.6512 31.3008 46.5457C31.3634 46.4401 31.3965 46.3196 31.3964 46.1968V43.3636L37.6855 39.1765L42.5363 41.8246C42.5684 41.8402 42.6017 41.8533 42.6359 41.8636C42.6543 41.8703 42.6714 41.88 42.6902 41.8847C42.8039 41.9157 42.9238 41.9157 43.0375 41.8847C43.0562 41.8797 43.0734 41.8699 43.0918 41.8636C43.1259 41.8533 43.1592 41.8402 43.1914 41.8246L48.9023 38.707C49.01 38.6481 49.0999 38.5614 49.1625 38.4558C49.2251 38.3502 49.2582 38.2297 49.2582 38.107V32.3941C49.2563 32.3565 49.2514 32.3191 49.2433 32.2824C49.2398 32.2613 49.2406 32.239 49.2351 32.2183C49.22 32.1614 49.1975 32.1066 49.1683 32.0554C49.1585 32.0379 49.1437 32.0238 49.132 32.0074C49.111 31.9744 49.0872 31.9433 49.0609 31.9144C49.0449 31.898 49.0246 31.8867 49.007 31.8718C48.9809 31.8478 48.9529 31.8259 48.9234 31.8062L48.9183 31.8043L48.914 31.8011L43.5449 28.7261V20.8984L48.9019 17.9742C49.0096 17.9153 49.0995 17.8286 49.1621 17.723C49.2247 17.6174 49.2578 17.4969 49.2578 17.3742V11.6601C49.2562 11.6226 49.2515 11.5852 49.2437 11.5484V11.5484ZM29.1375 40.566L25 42.8246L20.8625 40.566L20.6875 40.4703L25 38.0007L29.3125 40.4687L29.1375 40.566ZM12.1671 16.9675L7.82144 19.3394V15.1843L12.1671 12.8125V16.9675ZM7.13784 29.9097L11.4503 32.3793L11.2753 32.475L7.13784 34.7336L3.00034 32.475L2.82534 32.3793L7.13784 29.9097ZM12.7933 31.573L7.82144 28.7254V20.8984L12.3503 18.4261L18.6035 22.4949V27.4824L12.7933 31.573ZM19.9707 9.35974V5.20466L24.3164 7.5781V11.732L19.9707 9.35974ZM30.0292 9.35974L25.6835 11.732V7.5781L30.0292 5.20544V9.35974ZM25 19.6398L29.3125 22.1093L29.1375 22.205L25 24.4636L20.8625 22.205L20.6875 22.1093L25 19.6398ZM19.9707 23.2761L24.3164 25.6484V29.8047L19.9707 27.4316V23.2761ZM25.6835 25.6484L30.0292 23.2761V27.4316L25.6835 29.8047V25.6484ZM31.3964 22.4949L37.6496 18.425L42.1785 20.8984V28.7258L37.2066 31.5734L31.3964 27.4824V22.4949ZM42.1777 15.1843V19.3394L37.8328 16.9675V12.8125L42.1777 15.1843ZM37.8328 37.7015V33.5461L42.1785 35.9183V40.0734L37.8328 37.7015ZM46.9996 32.475L42.8621 34.7336L38.7242 32.475L38.5492 32.3793L42.8617 29.9097L47.1742 32.3793L46.9996 32.475ZM42.8621 9.17575L47.1746 11.6453L46.9996 11.741L42.8621 13.9996L38.7242 11.741L38.5492 11.6453L42.8621 9.17575ZM36.4894 17.5484L30.6902 21.323L25.6835 18.4558V13.2898L30.2695 10.7859L36.4652 14.6656V17.3726C36.4656 17.432 36.4737 17.4911 36.4894 17.5484V17.5484ZM25 1.56833L29.3121 4.03825L25.189 6.28903L25 6.39216L24.8109 6.28903L20.6878 4.03786L25 1.56833ZM19.7304 10.7871L24.3164 13.291V18.4558L19.3097 21.323L13.5105 17.5484C13.5261 17.4911 13.5341 17.432 13.5343 17.3726V14.6656L19.7304 10.7871ZM7.13784 9.17575L11.4503 11.6453L11.2753 11.741L7.13784 13.9996L3.00034 11.741L2.82534 11.6453L7.13784 9.17575ZM2.10933 12.8125L6.45503 15.1847V19.3394L2.10933 16.9675V12.8125ZM2.10933 33.5465L6.45503 35.9187V40.0738L2.10933 37.7015V33.5465ZM7.82222 35.9187L12.1679 33.5465V37.7015L7.82222 40.0734V35.9187ZM13.4964 38.3203C13.5209 38.2516 13.5341 38.1795 13.5355 38.1066V32.7238L19.3328 28.641L24.3164 31.3613V36.8168L18.9453 39.8918L18.941 39.8949L18.9359 39.8968C18.9062 39.9166 18.8781 39.9387 18.8519 39.9629C18.8343 39.9773 18.8128 39.989 18.7984 40.005C18.7717 40.0343 18.7477 40.0658 18.7265 40.0992C18.7152 40.1156 18.7007 40.1293 18.691 40.1465C18.6618 40.1976 18.6393 40.2524 18.6242 40.3093C18.6187 40.3293 18.6195 40.3507 18.616 40.3711C18.6078 40.4085 18.6028 40.4465 18.6011 40.4847V41.7215L13.4964 38.3203ZM19.9707 42.9949V41.6367L24.3164 44.009V48.164L19.9707 45.7922V42.9949ZM25.6835 48.164V44.0093L30.0292 41.6371V45.7925L25.6835 48.164ZM31.3964 40.4847C31.3946 40.4471 31.3897 40.4098 31.3816 40.373C31.3781 40.3519 31.3789 40.3297 31.3734 40.309C31.3582 40.252 31.3358 40.1973 31.3066 40.1461C31.2968 40.1285 31.282 40.1144 31.2703 40.098C31.2493 40.065 31.2255 40.0339 31.1992 40.005C31.1832 39.9886 31.1628 39.9773 31.1453 39.9625C31.1192 39.9384 31.0912 39.9165 31.0617 39.8968L31.0566 39.8949L31.0523 39.8918L25.6835 36.8168V31.3613L30.6671 28.641L36.4656 32.7238V38.107C36.467 38.1799 36.4802 38.252 36.5046 38.3207L31.3976 41.7218L31.3964 40.4847ZM43.5449 40.073V35.9183L47.8906 33.5461V37.7015L43.5449 40.073ZM43.5449 19.339V15.1843L47.8906 12.8125V16.9675L43.5449 19.339Z" fill="#E97732"/>
</svg>
