<svg width="46" height="46" viewBox="0 0 46 46" fill="none" xmlns="http://www.w3.org/2000/svg">
<g clip-path="url(#clip0_509_241)">
<path fill-rule="evenodd" clip-rule="evenodd" d="M34.0019 27.4981C33.4364 27.1873 30.6522 25.7023 30.1301 25.4951C29.6081 25.2879 29.2253 25.1757 28.825 25.7369C28.4248 26.2894 27.2676 27.5413 26.9196 27.9125C26.5716 28.2838 26.2323 28.3183 25.6667 28.0075C25.1012 27.6967 23.2654 27.0233 21.1424 24.9944C19.4893 23.4144 18.4017 21.4977 18.0885 20.9107C17.7753 20.3236 18.0885 20.03 18.3843 19.7538C18.6541 19.5034 18.9847 19.1062 19.2892 18.7868C19.585 18.4673 19.6894 18.2256 19.8982 17.8544C20.1071 17.4831 20.0201 17.1464 19.8895 16.8529C19.759 16.5593 18.7063 13.7016 18.2712 12.5447C17.8362 11.3791 17.349 11.5518 17.0096 11.5432C16.6703 11.5345 16.2875 11.4655 15.9047 11.4568C15.5218 11.4396 14.8867 11.5604 14.3386 12.113C13.7904 12.6655 12.2417 13.9951 12.1373 16.8097C12.0329 19.6242 13.9905 22.4215 14.269 22.8101C14.5387 23.2072 18.0189 29.3026 23.7874 31.8149C29.5646 34.3273 29.5907 33.5589 30.6522 33.5071C31.7136 33.4553 34.115 32.2466 34.6457 30.9343C35.1765 29.6134 35.22 28.4737 35.0808 28.232C34.9416 27.9902 34.5674 27.8262 34.0019 27.524V27.4981ZM23.4133 41.0616C19.5937 41.0616 16.0439 39.9219 13.0683 37.9794L5.84679 40.2759L8.19595 33.3517C5.9425 30.2782 4.62001 26.4966 4.62001 22.4129C4.62001 12.1216 13.0509 3.75563 23.4133 3.75563C33.7757 3.75563 42.2152 12.1216 42.2152 22.4129C42.2152 32.7042 33.7844 41.0702 23.4133 41.0702V41.0616ZM23.4133 0C10.9453 0 0.835256 10.0323 0.835256 22.4043C0.835256 26.6348 2.01854 30.5976 4.08058 33.9733L0 46L12.5027 42.0285C15.7394 43.8071 19.4545 44.8172 23.4133 44.8172C35.8899 44.8172 46 34.7849 46 22.4043C46 10.0236 35.8899 0 23.4133 0Z" fill="#F5F5F5"/>
</g>
<defs>
<clipPath id="clip0_509_241">
<rect width="46" height="46" fill="white"/>
</clipPath>
</defs>
</svg>
